PathFileType	4	(X/Y/Z)	C:\Users\Basilio\Documents\Thesis Gigler\squatting_fais\c3dfiles\075\SLS_front_pre3\markers_experimental.trc
DataRate	CameraRate	NumFrames	NumMarkers	Units	OrigDataRate	OrigDataStartFrame	OrigNumFrames
200.000000	200.000000	4	61	mm	200.000000	0	1331
Frame#	Time	FHD			LBHD			C7			T10			CLAV			LSHO			LUUPA			LMUPA			LDUPA			LLEP			LMEP			LRAD			LUL			LRFIN			RSHO			RUPA1			RMUPA			RDUPA			RLEP			RMEP			RRAD			RUL			RUFIN			RASI			USACR			LSACR			RSACR			LTHI1			LTHI2			LTHI3			LTHI4			LLFC			LMFC			LTIB1			LTIB2			LTIB3			LTIB4			LLMAL			LMMAL			LHEE			LMT1			LMT2			LMT5			RTHI			RTHI2			RTHI3			RTHI4			RLFC			RMFC			RTIB1			RTIB2			RTIB3			RTIB4			RLMAL			RMMAL			RHEE			RMT1			RMT2			RMT5			LASI			RBHD			
		X1	Y1	Z1	X2	Y2	Z2	X3	Y3	Z3	X4	Y4	Z4	X5	Y5	Z5	X6	Y6	Z6	X7	Y7	Z7	X8	Y8	Z8	X9	Y9	Z9	X10	Y10	Z10	X11	Y11	Z11	X12	Y12	Z12	X13	Y13	Z13	X14	Y14	Z14	X15	Y15	Z15	X16	Y16	Z16	X17	Y17	Z17	X18	Y18	Z18	X19	Y19	Z19	X20	Y20	Z20	X21	Y21	Z21	X22	Y22	Z22	X23	Y23	Z23	X24	Y24	Z24	X25	Y25	Z25	X26	Y26	Z26	X27	Y27	Z27	X28	Y28	Z28	X29	Y29	Z29	X30	Y30	Z30	X31	Y31	Z31	X32	Y32	Z32	X33	Y33	Z33	X34	Y34	Z34	X35	Y35	Z35	X36	Y36	Z36	X37	Y37	Z37	X38	Y38	Z38	X39	Y39	Z39	X40	Y40	Z40	X41	Y41	Z41	X42	Y42	Z42	X43	Y43	Z43	X44	Y44	Z44	X45	Y45	Z45	X46	Y46	Z46	X47	Y47	Z47	X48	Y48	Z48	X49	Y49	Z49	X50	Y50	Z50	X51	Y51	Z51	X52	Y52	Z52	X53	Y53	Z53	X54	Y54	Z54	X55	Y55	Z55	X56	Y56	Z56	X57	Y57	Z57	X58	Y58	Z58	X59	Y59	Z59	X60	Y60	Z60	X61	Y61	Z61	

1	0	-225.0662841796876	1717.755981445313	-857.3820800781252	-342.8043518066407	1600.96533203125	-967.6453247070315	-402.1412963867189	1480.557861328125	-910.1660766601565	-417.7200927734376	1156.328979492188	-906.1912231445315	-260.5537109375001	1418.45556640625	-890.7893676757815	-274.4692687988282	1444.252685546875	-1055.948852539063	-273.9089965820313	1236.040161132813	-1165.045532226563	-238.2193603515626	1214.544555664063	-1137.273803710938	-258.4481201171876	1167.924194335938	-1171.995361328125	-236.003646850586	1085.980712890625	-1163.673828125	-314.7572937011719	1076.5224609375	-1116.181762695313	-161.061508178711	995.7128906250002	-936.0513916015627	-129.9446411132813	947.7103271484377	-984.3547363281252	-105.4701766967774	963.0540161132815	-881.7196044921877	-312.6755371093751	1443.454345703125	-734.0697631835939	-335.6800231933594	1237.256958007813	-625.2854003906251	-296.5484924316407	1211.5224609375	-641.4943237304689	-328.0607604980469	1168.02294921875	-612.4648437500001	-309.3684387207032	1099.279174804688	-610.5110473632814	-366.5240173339844	1068.046264648438	-662.9276733398439	-151.3316650390625	999.529479980469	-817.0322875976565	-145.0806884765625	961.1687622070315	-750.4322509765626	-82.05051422119142	952.6668090820315	-849.9884033203127	-254.2201232910157	999.4425048828127	-769.5026855468752	-408.589569091797	1056.879150390625	-904.9613037109377	-413.4681701660157	1023.850341796875	-931.3071899414065	-415.1509704589845	1027.00927734375	-874.1168212890627	-305.3720703125001	739.9816284179689	-1096.4931640625	-279.4887084960938	660.3538208007814	-1094.408203125	-233.6148834228516	663.5286865234376	-1075.192260742188	-309.0241394042969	608.6781616210939	-1084.626098632813	-321.5374450683594	500.4835815429689	-1076.274047851563	-280.5889587402344	482.7581787109376	-952.133972167969	-263.1199035644532	379.4566345214844	-1050.621826171875	-322.0812683105469	341.9481506347657	-1102.366943359375	-281.1715087890626	334.9597778320313	-1083.256713867188	-282.1195678710938	252.8715362548829	-1060.458251953125	-351.3386535644532	111.6831436157227	-1086.371826171875	-324.5256042480469	120.4645767211914	-1005.420715332031	-406.8478393554689	78.80699157714845	-1050.070068359375	-200.1280670166016	51.53169631958009	-1016.152587890625	-194.668685913086	55.09556198120119	-1064.5478515625	-231.2951049804688	41.64495468139649	-1118.89892578125	-326.5668945312501	796.9180297851565	-703.3620605468751	-291.4057922363282	741.8995971679689	-706.2346191406251	-259.8147583007813	746.5526733398439	-715.9227905273439	-323.8623046875001	662.5284423828126	-716.6773071289064	-348.1525573730469	509.5363159179689	-747.5139770507814	-303.8327941894532	498.988494873047	-869.4500122070315	-298.5468139648438	359.5296936035157	-804.6405029296877	-354.3654479980469	285.6156005859376	-747.7056884765626	-315.0057373046876	278.6188659667969	-775.9680786132815	-324.4607238769532	232.8011016845704	-812.543884277344	-397.0021362304689	114.1295242309571	-777.8701782226565	-362.2956542968751	135.7935943603516	-856.4077148437502	-447.5267333984376	92.73338317871095	-837.0361938476565	-242.1658172607422	59.27999114990236	-823.9279785156252	-248.2210083007813	55.81077575683595	-781.8587646484377	-290.3229064941407	35.00220489501954	-734.3429565429689	nan	nan	nan	nan	nan	nan	
2	0.005	-225.1757507324219	1717.822265625	-857.6963500976565	-342.8353881835938	1600.96923828125	-967.6296386718752	-401.9531860351564	1480.524169921875	-910.087097167969	-417.379364013672	1156.262817382813	-906.314392089844	-261.0449829101563	1418.742309570313	-891.2932739257815	-274.2944946289063	1444.381225585938	-1056.00732421875	-273.6196594238282	1236.18798828125	-1165.130737304688	-237.9041595458985	1214.702392578125	-1137.4013671875	-258.1183166503907	1168.115844726563	-1172.16748046875	-235.5690002441407	1086.164916992188	-1163.837524414063	-314.4770507812501	1076.683837890625	-1116.41552734375	-160.7710266113282	995.8496704101565	-936.2006835937502	-129.6349182128907	947.834899902344	-984.5230102539065	-105.3007202148438	963.069519042969	-881.8552856445315	-312.4164733886719	1443.384521484375	-734.0853881835939	-335.4934692382813	1237.198852539063	-625.3132934570314	-296.3177185058594	1211.455444335938	-641.5075073242189	-327.8631896972657	1167.945678710938	-612.5572509765626	-309.1764831542969	1099.177612304688	-610.6502685546876	-366.3844909667969	1068.024780273438	-663.0203247070314	-151.2322235107422	999.4675903320315	-817.1092529296877	-144.9464721679688	961.0850830078127	-750.5317382812501	-81.90708160400392	952.5910644531252	-850.0938720703127	-253.9271087646485	999.3808593750002	-769.6132812500002	-408.2299194335939	1056.920166015625	-905.138610839844	-413.095184326172	1023.887329101563	-931.4685668945315	-414.7916259765626	1027.015014648438	-874.2592773437502	-305.0892333984376	739.9561767578126	-1096.626831054688	-279.2690734863282	660.3616943359376	-1094.50048828125	-233.346176147461	663.5279541015626	-1075.33544921875	-308.8512573242188	608.6717529296876	-1084.732788085938	-321.4055175781251	500.4673461914064	-1076.35595703125	-280.3666076660157	482.7802124023439	-952.244567871094	-263.6965637207032	379.5843505859376	-1051.236206054688	-321.9659118652344	342.0007324218751	-1102.42236328125	-281.1027221679688	334.9271545410157	-1083.342163085938	-282.0480957031251	252.8288879394532	-1060.541137695313	-351.3748168945313	111.6925659179688	-1086.365478515625	-324.5561218261719	120.4615859985352	-1005.452575683594	-406.8109130859376	78.81365203857423	-1050.072387695313	-200.1306152343751	51.50531005859376	-1016.130859375	-194.6545715332032	55.10991287231447	-1064.507934570313	-231.3330535888672	41.63292694091798	-1118.910522460938	-326.2130126953126	796.896423339844	-703.5216064453126	-291.0752258300782	741.8652343750001	-706.4010620117189	-259.5097656250001	746.5213623046876	-716.0577392578126	-323.5855102539063	662.5463867187501	-716.7636108398439	-347.8755187988282	509.5482788085939	-747.6144409179689	-303.6181945800782	498.9554748535157	-869.521667480469	-298.4277954101563	359.4974975585938	-804.6737060546877	-354.2555236816407	285.6244201660157	-747.8059692382814	-314.8381958007813	278.6285095214844	-776.0582275390627	-324.3594665527344	232.8536224365235	-812.542419433594	-396.9832153320314	114.1915969848633	-777.863708496094	-362.2103576660157	135.8245849609375	-856.4637451171877	-447.5064697265626	92.75532531738283	-837.057067871094	-242.1584167480469	59.29325103759767	-823.932800292969	-248.4953613281251	55.64608001708986	-782.5557250976565	-290.3594055175782	35.22090911865235	-734.1484375000001	nan	nan	nan	nan	nan	nan	
3	0.01	-225.1958618164063	1717.955932617188	-857.9511718750002	-342.9170227050782	1600.870483398438	-967.5845947265627	-401.8546447753907	1480.48779296875	-910.1340332031252	-416.9963684082032	1156.219970703125	-906.4526977539065	-260.8348083496094	1418.760009765625	-891.2924804687502	-274.0820007324219	1444.513427734375	-1056.037963867188	-273.3102416992188	1236.374755859375	-1165.2783203125	-237.5515136718751	1214.8818359375	-1137.530639648438	-257.7106323242188	1168.311157226563	-1172.272216796875	-235.1976013183594	1086.386840820313	-1163.982421875	-314.0239257812501	1076.79931640625	-1116.652221679688	-160.4922943115235	995.9820556640627	-936.3754882812502	-129.3569030761719	947.9586181640627	-984.675231933594	-105.0569763183594	963.151306152344	-881.948425292969	-312.2234497070313	1443.328735351563	-734.1248168945314	-335.2524719238282	1237.13427734375	-625.3505859375001	-296.1049194335938	1211.383544921875	-641.6017456054689	-327.5966186523438	1167.866821289063	-612.6605834960939	-308.9986267089844	1099.111938476563	-610.7538452148439	-366.1939392089844	1067.930297851563	-663.1776123046876	-151.0532531738282	999.4516601562502	-817.2525024414065	-144.7821655273438	961.032165527344	-750.6820068359376	-81.71298980712892	952.6358032226565	-850.233825683594	-253.6466064453126	999.3479003906252	-769.6820068359377	-407.8663330078126	1056.893798828125	-905.2412719726565	-412.7009582519532	1023.912231445313	-931.6304931640627	-414.009979248047	1027.248657226563	-874.389099121094	-305.8130187988282	740.2320556640626	-1096.88427734375	-279.0207519531251	660.3218994140626	-1094.647705078125	-233.0536193847657	663.4797973632814	-1075.451416015625	-308.6166992187501	608.6885986328126	-1084.8232421875	-321.2752990722657	500.4400939941407	-1076.455932617188	-280.2485046386719	482.7986755371095	-952.332702636719	-263.6315917968751	379.5596618652344	-1051.285766601563	-321.8916931152344	341.9259033203126	-1102.490966796875	-281.0105895996094	334.9004821777344	-1083.381469726563	-281.9892272949219	252.8103637695313	-1060.612548828125	-351.3138122558594	111.6975784301758	-1086.375244140625	-324.5504150390626	120.456413269043	-1005.479858398438	-406.8078613281251	78.81585693359376	-1050.048706054688	-200.1482238769532	51.5555763244629	-1016.178955078125	-194.6542358398438	55.09934997558595	-1064.557006835938	-231.3288574218751	41.6335563659668	-1118.914428710938	-325.8743896484376	796.9171142578127	-703.6456298828126	-290.7528686523438	741.8109741210939	-706.6365966796876	-259.1800842285157	746.4941406250001	-716.2082519531251	-323.2673034667969	662.5644531250001	-716.8889770507814	-347.6203002929688	509.5803527832032	-747.7274780273439	-303.3632812500001	498.895477294922	-869.6512451171877	-298.3201599121094	359.4420471191407	-804.7541503906252	-354.1107482910157	285.6337890625001	-747.8612670898439	-314.6997680664063	278.6503601074219	-776.0835571289065	-324.2785339355469	232.7969512939454	-812.615905761719	-396.9453125000001	114.2293548583985	-777.8984375000002	-362.2002563476563	135.8451232910157	-856.4860839843752	-447.4951782226564	92.78276824951173	-837.0598754882815	-242.1013793945313	59.28037261962892	-823.9436645507815	-248.2118377685547	55.79893112182619	-781.8399658203127	-290.2968750000001	34.99813842773438	-734.3703002929689	nan	nan	nan	nan	nan	nan	
4	0.015	-225.2832794189454	1718.054321289063	-858.2180175781252	-342.9298706054688	1600.8134765625	-967.536315917969	-401.6502990722657	1480.431884765625	-910.0986938476565	-416.7463989257814	1156.169555664063	-906.6182250976565	-260.6058959960938	1418.835327148438	-891.3256835937502	-273.8966064453126	1444.653076171875	-1056.068969726563	-272.9277648925782	1236.583862304688	-1165.411010742188	-237.2274932861329	1215.103149414063	-1137.646118164063	-257.3735046386719	1168.510375976563	-1172.431274414063	-234.7958374023438	1086.585571289063	-1164.134399414063	-313.6817626953126	1077.03076171875	-1116.9169921875	-160.223373413086	996.082458496094	-936.553161621094	-129.0516662597657	948.1216430664065	-984.8521118164065	-104.889877319336	963.169860839844	-882.0839843750002	-311.9866027832032	1443.2880859375	-734.1096801757814	-334.9886474609376	1237.046997070313	-625.4232177734376	-295.8638610839844	1211.301147460938	-641.6887207031251	-327.3536987304688	1167.784057617188	-612.7702636718751	-308.8070373535157	1099.010131835938	-610.8652343750001	-365.9653015136719	1067.902465820313	-663.2046508789064	-150.8800964355469	999.3970947265627	-817.4138183593752	-144.623046875	961.012878417969	-750.8478393554689	-81.49214935302736	952.6033325195315	-850.3381347656252	-253.3491363525391	999.3518676757815	-769.8835449218752	-407.5080871582032	1056.925537109375	-905.4273681640627	-412.2912597656251	1023.934204101563	-931.7949829101565	-413.985321044922	1027.050048828125	-874.521911621094	-305.6053466796876	740.1720581054689	-1097.0673828125	-278.8248596191407	660.3301391601564	-1094.67724609375	-232.8728027343751	663.4676513671876	-1075.613647460938	-308.3592834472657	608.6961059570314	-1084.9541015625	-321.0714416503907	500.456512451172	-1076.591674804688	-280.0679626464844	482.8024291992189	-952.4143676757815	-263.4890441894532	379.5152282714844	-1051.423461914063	-321.7727355957032	341.9412536621094	-1102.561767578125	-280.9406738281251	334.8761291503907	-1083.467407226563	-281.9181518554688	252.8133850097657	-1060.597045898438	-351.3352050781251	111.7138061523438	-1086.44091796875	-324.5083312988282	120.4637222290039	-1005.499755859375	-406.8240356445314	78.83895111083986	-1050.062744140625	-200.176254272461	51.47240829467775	-1016.150939941406	-194.6721954345704	55.08162689208986	-1064.53173828125	-231.3099060058594	41.65004348754884	-1118.9111328125	-325.4990844726563	796.9328613281252	-703.8130493164064	-290.3894958496094	741.8453979492189	-706.7702026367189	-258.8913879394532	746.4372558593751	-716.3739013671876	-322.9860839843751	662.5497436523439	-717.0041503906251	-347.3609924316407	509.5787048339845	-747.8085327148439	-303.1067504882813	498.853485107422	-869.742370605469	-296.5249023437501	359.5706176757813	-803.789733886719	-353.9547424316407	285.6605834960938	-747.9068603515626	-314.5729980468751	278.6024169921876	-776.220397949219	-324.2265014648438	232.7750396728516	-812.6052246093752	-396.9348449707032	114.2377319335938	-777.9168701171877	-362.1871643066407	135.7723999023438	-856.5037841796877	-447.4875488281251	92.82098388671876	-837.0681762695315	-242.1006622314454	59.27729797363283	-823.933288574219	-248.5123291015626	55.24672698974611	-783.0916137695315	-290.2406616210938	35.00960922241212	-734.3042602539064	nan	nan	nan	nan	nan	nan	
